<svg id="Layer_1" data-name="Layer 1" xmlns="http://www.w3.org/2000/svg" viewBox="0 0 880.74 307.23"><title>logo-1-blackArtboard 1</title><path d="M500.17,80.12q-5.13,18.36-10,36.78c5.91.19,11.83.36,17.75.59q-3.66-18.67-7.46-37.37Z"/><path d="M94.87,119.87l.53-.09q5.17-1,10.39-1.89l11.66,65.45.47.32c3.49,2.39,7,4.8,10.41,7.2l.45.33.56-.1c7.44-1.27,15.08-2.55,22.71-3.77l1.34-.21-12-75.25q9.81-1.55,19.64-3l1.36-.2L159,86l-.49-.35c-3.55-2.46-7.13-5-10.71-7.38l-.44-.33-.54.08c-22.12,3.43-44.56,7.28-66.68,11.46l-1.34.27,4.28,22.48.5.33c3.63,2.33,7.24,4.66,10.85,7ZM83.67,92.5Q114,86.8,144.46,82.09c.8,5.07,1.59,10.18,2.38,15.28Q136.3,99,125.7,100.77q6.27,37.58,12.56,75.13c-5.81,1-11.58,1.95-17.37,3q-6.65-37.53-13.27-75.05-10.56,1.92-21.08,3.85C85.58,102.65,84.64,97.59,83.67,92.5Z"/><path d="M255.84,173.76,253.51,151l-.44-.34q-5-4-10-7.93l-.45-.35-.57.05c-7,.76-14.27,1.58-21.56,2.45l-.83-7c7.21-.86,14.65-1.68,22.15-2.49l1.36-.13-2.44-22.81-.46-.34c-3.39-2.6-6.78-5.24-10.2-7.85l-.43-.33-.56.06q-6.65.74-13.3,1.54l-.46-4c9.84-1.16,20-2.31,30.06-3.34l1.38-.14L244.44,75.3,244,75c-3.44-2.63-6.9-5.28-10.35-7.89l-.45-.33-.54.06c-18.68,2-37.57,4.34-56.11,6.88l-1.36.21,13.43,97.57.09.57.46.35c3.38,2.53,6.73,5,10.1,7.59l.44.34.57-.06c17.88-2.4,36.12-4.51,54.21-6.37Zm-63.56-6q-6.19-45.4-12.37-90.8,25.1-3.45,50.22-6.18.85,7.68,1.68,15.36Q216,87.87,200.17,89.84c.89,7,1.77,14,2.65,21q11.93-1.53,23.85-2.89c.6,5.1,1.18,10.26,1.74,15.36q-11.82,1.36-23.66,2.83,1.55,12,3,24,16-2,31.91-3.76c.55,5.15,1.12,10.27,1.68,15.39Q216.8,164.39,192.28,167.73Z"/><path d="M687.49,72.26l-.36-.41-.53-.06c-8-1-16.1-2-24.17-3l-1.34-.17-11.56,98.42.36.44c2.64,3.3,5.26,6.61,7.87,9.88l.34.44.56.1c7.63.91,15.3,1.94,22.79,2.92l1.36.19,13.27-98.21-.38-.46C693,79,690.25,75.64,687.49,72.26ZM671.55,166c-5.82-.78-11.64-1.48-17.46-2.17q5.43-45.5,10.8-91c6.13.72,12.24,1.47,18.34,2.29Q677.41,120.49,671.55,166Z"/><path d="M313.78,90.65c-.58-8.88-5.73-12.35-13.82-11.77-3.13.22-6.25.47-9.39.71.65,8.47,1.34,16.89,2,25.35,3.11-.25,6.19-.49,9.28-.71C309.78,103.65,314.38,99.57,313.78,90.65Zm-8.08,9L305.16,92c1.49-.15,3-.24,4.43-.3C309.83,96,308.64,98.47,305.7,99.7Z"/><path d="M310.66,169l-2-27.76c2.9,5.86,5.81,11.73,8.62,17.54l.13.24.22.2c3.17,2.76,6.35,5.53,9.5,8.29l.43.4.58,0c8.19-.5,16.49-1,24.64-1.33l2.05-.09-.88-1.88c-6.42-13.42-13-26.91-19.59-40.08,8.28-5.27,12.18-14,11.58-26.06-.36-6.94-2.22-12.81-5.54-17.44C338,77.54,327,68.44,324.62,66.76c-6.63-4.64-15.88-6.67-27.16-5.84-9.8.72-19.76,1.54-29.62,2.4l-1.37.12,8.76,98.13.06.57.44.35c3.24,2.68,6.47,5.4,9.7,8.1l.44.37.56,0c7.6-.64,15.31-1.24,22.87-1.77Zm-14.07-12.45q-8.76.67-17.52,1.47-4-45.65-8-91.32,13.31-1.17,26.65-2.12C319.9,63,331,72.64,332,89.8c.63,11.43-3.08,19.79-12.84,24.19q10.14,19.85,19.9,39.77c-6.27.32-12.55.71-18.81,1.11q-8.82-18.13-18-36.17l-8.53.64Q295.12,138,296.59,156.56Z"/><path d="M398.21,74.26l-9.43.23c.24,8.45.45,16.93.66,25.37,3.1-.08,6.2-.14,9.3-.21,8-.16,12.76-4,12.62-12.92S406.29,74.1,398.21,74.26Zm4.64,21.07-.15-7.67,4.44-.11C407.16,91.86,405.83,94.27,402.85,95.33Z"/><path d="M448.5,164.54l-.81-1.92C442,148.89,436.1,135.1,430.2,121.57c8.54-4.85,12.88-13.38,12.91-25.41,0-8-2.09-14.72-6.17-19.84C434.87,73.73,424.49,64,421.45,62c-6.18-4-14.58-6-24.84-5.83-9.84.24-19.83.54-29.68.92l-1.39,0,3.71,99,.44.37c3.09,2.88,6.19,5.74,9.27,8.6l.4.38.56,0c7.65-.24,15.38-.47,22.93-.59l1.38,0L403.68,137c2.58,6,5.17,12,7.7,18l.11.26.22.17q4.55,4.41,9.05,8.82l.41.38h.57q12.31-.14,24.68-.05Zm-34-13.35c-5.25-12.36-10.61-24.75-16.08-37.06-2.84.06-5.69.1-8.55.19q.5,18.68,1,37.33c-5.85.15-11.7.35-17.56.55q-1.63-45.78-3.27-91.59c8.91-.31,17.8-.59,26.7-.76,22.22-.48,32.81,9.75,32.87,27,.06,11.43-4.11,19.6-14.05,23.47q9.08,20.37,17.8,40.75Q423.9,151.07,414.46,151.19Z"/><path d="M545,167.61l-.3-1.71c-5.91-32.75-12.24-65.81-18.94-98.26l-.09-.4-.27-.27c-3-3.12-6-6.21-9.07-9.31l-.38-.4h-.55c-9.31-.39-18.82-.69-28.26-.94l-1.07,0-.29,1c-9.23,32-18.17,64.54-26.55,96.67l-.2.76.56.57q4.46,4.5,8.83,9l.4.4h.56c7.56.13,15.1.31,22.44.53h1.05l.29-1q2.63-9.1,5.27-18.18c3.63.1,7.23.24,10.86.4.59,3.15,1.19,6.31,1.79,9.46l.07.39.26.29,8.58,9.27.37.43.57,0c7.34.31,14.84.71,22.34,1.14Zm-30.24-15q-1.83-9.76-3.68-19.54c-8.2-.33-16.38-.58-24.55-.8q-2.77,9.63-5.48,19.24-8.46-.2-16.92-.33,12-45.66,25.2-91.15c7.88.18,15.75.46,23.64.76q9.84,46.26,18.56,92.58C525.91,153.12,520.33,152.85,514.74,152.62Z"/><path d="M597.59,80.47l-9.79-.79q-1,12.91-2,25.85c3.21.22,6.44.47,9.66.75,8.87.75,13.69-3.08,14.47-11.73S606.6,81.24,597.59,80.47Zm2,22.11.71-8.36c1.78.17,3.57.31,5.37.48C605.18,99.64,603.38,102,599.56,102.58Z"/><path d="M622.4,70.89c-5.94-4.8-14.39-7.72-25-8.6-9.77-.83-19.7-1.57-29.49-2.22L566.51,60l-6.66,98.85.37.42c2.8,3.18,5.56,6.36,8.32,9.52l.39.41.55,0c7.62.52,15.32,1.18,22.88,1.8l1.37.12,3.13-36.71,3.66.33c2.07.17,4.12.26,6.07.26,19.92,0,32-9.93,33.92-28,.86-7.92-.55-14.77-4.15-20.27C634.58,84,625.41,73.31,622.4,70.89ZM628,96.28c-1.77,17.17-13.53,26.12-35.49,24.28-2.64-.23-5.25-.45-7.89-.63q-1.46,18.34-2.87,36.72-8.79-.71-17.53-1.29,3.15-45.74,6.29-91.43,13.28.9,26.54,2C619.76,67.82,629.78,79.17,628,96.28Z"/><path d="M735.25,188.93l5.5-33.39c2.31,8.48,4.6,17.08,6.83,25.62l.23.47c2.45,3.41,4.87,6.86,7.32,10.29l.32.5.56.07c7,1.24,13.94,2.52,20.94,3.85l1.34.27,18.49-97.36-.34-.48q-3.83-5.26-7.69-10.5l-.34-.45-.52-.1c-7.39-1.36-14.95-2.72-22.42-4l-1.36-.22-4.91,28.34c-1.88-6.89-3.8-13.71-5.68-20.32l-.22-.43c-2.63-3.46-5.26-6.92-7.92-10.34l-.34-.45-.52-.08c-8-1.3-16.38-2.59-24.8-3.83l-1.37-.21L704,173.62l-.09.57.34.48c2.54,3.38,5.07,6.73,7.58,10.12l.34.44.54.1q10.64,1.62,21.22,3.39ZM724.4,173.52c-5.29-.84-10.59-1.67-15.88-2.44q6.78-45.33,13.54-90.65,10,1.51,20,3.12,8.4,28.82,16.06,57.74a.77.77,0,0,1,.26,0q4.67-26.73,9.3-53.51,8.37,1.47,16.65,3-8.24,45.06-16.51,90.16c-5.53-1-11.07-2-16.6-2.94q-8.22-31.53-17.29-62.94a.74.74,0,0,1-.26,0Q729,144.27,724.4,173.52Z"/><polygon points="230.37 242.5 227.25 240.96 225.95 238.34 225.95 227.43 227.25 224.85 230.37 223.27 233.9 223.27 240.14 225.38 236.6 214.7 222.57 214.7 215.3 221.99 215.3 243.81 222.57 251.09 237.13 251.09 240.65 240.43 234.43 242.5 230.37 242.5"/><path d="M276.11,218.11l.77-3.41H259.21l.78,3.41-7.26,28.81-2.08,4.17h12l-.53-4.17.78-3.11.52-.52H272l.53.52.76,3.11-.53,4.17h12.74l-2.06-4.17ZM270,235.49h-4.69l-.51-.52,2.6-11.17.26-1.81.26,1.81,2.6,11.17Z"/><path d="M322.88,236.29l4.67-4.68V221.49l-6.77-6.79H298.2l1.28,4.15v28.07l-1.28,4.17h12.46l-1.3-4.17v-7.54l.51-.51h2.87l1,.51,3.9,11.71h11.7l-2.85-5Zm-5.47-8.86-1,2.09-2.07,1h-4.43l-.51-.52v-6.48l.51-.53h4.43l2.07,1.07,1,2.07Z"/><polygon points="356.4 242.24 355.61 241.45 355.61 236.55 356.14 236.02 359.51 236.02 363.41 237.31 363.41 226.39 359.51 227.7 356.14 227.7 355.61 227.18 355.61 223.54 356.03 223.01 364.96 223.01 369.52 224.6 366.26 214.7 344.44 214.7 345.74 218.85 345.74 246.92 344.44 251.09 367.05 251.09 370.57 240.43 365.12 242.24 356.4 242.24"/><polygon points="418.5 223.8 420.05 223.01 427.43 223.01 431.91 224.6 428.62 214.7 414.07 214.7 407.32 221.49 407.32 230.02 412 234.7 420.05 236.55 421.35 237.81 421.35 239.91 420.58 241.45 419.01 242.24 411.57 242.24 406.13 240.43 409.66 251.09 424.99 251.09 431.74 244.33 431.74 234.18 426.81 229.26 418.75 227.43 417.71 226.39 417.71 225.38 418.5 223.8"/><polygon points="447.6 214.7 444.12 225.12 449.52 223.27 453.57 223.27 454.08 223.8 454.08 245.61 452.26 251.09 466.05 251.09 464.22 245.61 464.22 223.8 464.73 223.27 468.8 223.27 474.21 225.12 470.71 214.7 447.6 214.7"/><path d="M507.36,218.11l.78-3.41H490.46l.79,3.41L484,246.92l-2.08,4.17h11.94l-.52-4.17.79-3.11.52-.52h8.56l.52.52.79,3.11-.51,4.17h12.72l-2.09-4.17Zm-6.14,17.38h-4.67L496,235l2.59-11.17.26-1.81.27,1.81,2.6,11.17Z"/><polygon points="527.88 214.7 524.4 225.12 529.81 223.27 533.87 223.27 534.37 223.8 534.37 245.61 532.56 251.09 546.34 251.09 544.52 245.61 544.52 223.8 545.02 223.27 549.08 223.27 554.49 225.12 551.01 214.7 527.88 214.7"/><polygon points="580.36 214.7 567.64 214.7 568.95 218.85 568.95 246.92 567.64 251.09 580.36 251.09 579.06 246.92 579.06 218.85 580.36 214.7"/><path d="M604,214.7l-6.75,6.79v22.84l6.75,6.76h16.13l6.74-6.76V221.49l-6.74-6.79Zm12.49,24.68-1,2.07-2.07,1.05h-2.6l-2.08-1.05-1.05-2.07V225.89l1.05-2.09,2.08-1.05h2.6l2.07,1.05,1,2.09Z"/><polygon points="664.56 218.85 664.56 230.02 664.82 232.66 663.77 230.02 654.67 214.7 643.51 214.7 645.07 218.85 645.07 246.92 643.78 251.09 655.2 251.09 653.91 246.92 653.91 231.86 653.63 229.26 654.67 231.86 666.13 251.09 673.14 251.09 673.14 218.85 674.43 214.7 663.26 214.7 664.56 218.85"/><polygon points="169.99 240.81 160.54 234.32 103.75 220.11 96.64 216.59 91.32 211.23 91.32 213.01 91.9 215.39 96.06 223.67 106.7 230.76 158.76 239.06 168.23 243.76 174.15 249.68 172.97 245.55 169.99 240.81"/><polygon points="101.38 215.39 158.18 229.59 165.27 233.13 170.6 238.46 170.6 236.67 169.99 234.32 165.86 226.05 155.22 218.95 103.16 210.63 93.7 205.92 87.76 199.98 88.95 204.14 91.9 208.87 101.38 215.39"/><polygon points="786 220.11 729.2 234.32 719.74 240.81 716.76 245.55 715.61 249.68 721.51 243.76 730.96 239.06 783.04 230.76 793.69 223.67 797.82 215.39 798.41 213.01 798.41 211.23 793.09 216.59 786 220.11"/><polygon points="796.05 205.92 786.59 210.63 734.53 218.95 723.88 226.05 719.74 234.32 719.15 236.67 719.15 238.46 724.47 233.13 731.58 229.59 788.34 215.39 797.82 208.87 800.79 204.14 801.96 199.98 796.05 205.92"/></svg>